<?xml version="1.0" encoding="utf-8"?>
<!-- Generator: Adobe Illustrator 24.1.2, SVG Export Plug-In . SVG Version: 6.00 Build 0)  -->
<svg version="1.1" id="Layer_1" xmlns="http://www.w3.org/2000/svg" xmlns:xlink="http://www.w3.org/1999/xlink" x="0px" y="0px" width="2000px" height="2000px" viewBox="0 0 2000 2000" style="enable-background:new 0 0 2000 2000;" xml:space="preserve">
<path id="backgraund" style="fill:#FFFFFF;" d="M1900,1100.66v-0.5h-115.89V846.59v-14.45h0.08v-65.32v-136.4v-65.32h-0.16v-2.01
	l0.08,0.01V397.24v-13.21v-22.4v-22.4h-58.68h-340.46v0H621.17H326.63v-0.06h-44.8v492.83h35.19v0.22h-9.79v15.16H100v0.5l-0.5,0.01
	c1.22,54.77,23.52,105.92,62.81,144.01c38.94,37.76,90.37,58.66,144.91,58.94v11.87h-25.39v284.46v268.78v44.8h240.19h99.15h165.39
	h598.4h399.06v0h0.08v-5.34v-17.06v-22.4v-95.35v-9.92v-6.59h0.14v-166.49H1900v-0.25v-0.5h0.5v-236.21H1900z"></path>
<g id="g1">
	<path id="g1_path" style="fill:none;" d="M615.02,1638.18h-311v-415h311V1638.18z"></path>
	<text id="g1_text" transform="matrix(1 0 0 1 441.4647 1443.4344)" style="font-family: GraphikLCG-Regular; font-size: 40px; text-anchor: middle; text-align: center;"></text>
</g>
<g id="s1">
	<path id="s1_path" style="fill:none;" d="M899.02,805.18h-595v-441h595V805.18z"></path>
	<text id="s1_text" transform="matrix(1 0 0 1 607.4645 657.4346)" style="font-family: GraphikLCG-Regular; font-size: 40px; text-anchor: middle; text-align: center;"></text>
</g>
<g id="h1">
	<path id="h1_path" style="fill:none;" d="M908.02,1042.18h-291v181h-320v-418h318h2h291V1042.18z"></path>
	<text id="h1_text" transform="matrix(1 0 0 1 451.5246 1026.9343)" style="font-family: GraphikLCG-Regular; font-size: 40px; text-anchor: middle; text-align: center;"></text>
</g>
<g id="r1">
	<path id="r1_path" style="fill:none;" d="M1758.02,1638.18l-1143,0.32v-596.32h1143V1638.18z"></path>
	<text id="r1_text" transform="matrix(1 0 0 1 1170.5446 1353.0918)" style="font-family: GraphikLCG-Regular; font-size: 40px; text-anchor: middle; text-align: center;"></text>
</g>
<g id="c1">
	<path id="c1_path" style="fill:none;" d="M1758.02,1042.18h-850v-680l850-2V1042.18z"></path>
	<text id="c1_text" transform="matrix(1 0 0 1 1381.1643 733.9346)" style="font-family: GraphikLCG-Regular; font-size: 40px; text-anchor: middle; text-align: center;"></text>
</g>
<g id="floor">
	<polygon style="fill-rule:evenodd;clip-rule:evenodd;" points="625.65,1032.81 607.73,1032.81 607.73,1425.57 625.65,1425.57 
		625.65,1116.2 625.65,1032.81 	"></polygon>
	<polygon style="fill-rule:evenodd;clip-rule:evenodd;" points="625.65,1604.76 607.73,1604.76 607.73,1615.96 625.65,1615.96 
		625.65,1604.76 	"></polygon>
	<polygon style="fill-rule:evenodd;clip-rule:evenodd;" points="607.73,1215.03 326.63,1215.03 326.63,1232.95 607.73,1232.95 
		607.73,1215.03 	"></polygon>
	<polygon style="fill-rule:evenodd;clip-rule:evenodd;" points="1725.42,1032.81 1315.53,1032.81 1315.53,1050.73 1725.42,1050.73 
		1725.42,1032.81 	"></polygon>
	<polygon style="fill-rule:evenodd;clip-rule:evenodd;" points="1113.94,1032.81 625.65,1032.81 625.65,1050.73 1113.94,1050.73 
		1113.94,1048.49 1113.94,1032.81 	"></polygon>
	<polygon style="fill-rule:evenodd;clip-rule:evenodd;" points="1743.34,845.9 1725.42,847.69 1725.42,1085.11 1743.34,1086.91 
		1743.34,846.59 1743.34,845.9 	"></polygon>
	<polygon style="fill-rule:evenodd;clip-rule:evenodd;" points="1784.11,832.14 1770.22,833.13 1770.22,1099.67 1784.11,1100.67 
		1784.11,846.59 1784.11,832.14 	"></polygon>
	<polygon style="fill-rule:evenodd;clip-rule:evenodd;" points="1770.22,843.21 1743.34,845.9 1743.34,1086.91 1770.22,1089.59 
		1770.22,846.59 1770.22,843.21 	"></polygon>
	<polygon style="fill-rule:evenodd;clip-rule:evenodd;" points="326.63,339.18 281.83,339.18 281.83,832.01 326.63,832.01 
		326.63,811.56 325.73,811.56 325.73,806.88 326.63,806.88 326.63,353.71 326.63,339.18 	"></polygon>
	<polygon points="1725.42,547.55 1743.34,549.34 1770.22,552.03 1770.22,562.11 1784.11,563.1 1784.11,397.24 1784.11,384.04 
		1725.42,384.04 	"></polygon>
	<polygon style="fill-rule:evenodd;clip-rule:evenodd;" points="1384.96,384.04 1384.96,339.24 621.17,339.24 621.17,384.04 
		786.56,384.04 1384.96,384.04 	"></polygon>
	<polygon points="1725.42,339.24 1384.96,339.24 1384.96,384.04 1725.42,384.04 1725.42,361.64 	"></polygon>
	<polygon points="1725.42,361.64 1725.42,384.04 1784.11,384.04 1784.11,361.64 1784.11,339.24 1725.42,339.24 	"></polygon>
	<polygon style="fill-rule:evenodd;clip-rule:evenodd;" points="621.17,339.24 285.19,339.24 285.19,384.04 621.17,384.04 
		621.17,339.24 	"></polygon>
	<polygon style="fill-rule:evenodd;clip-rule:evenodd;" points="326.63,1062.72 281.83,1062.72 281.83,1347.18 326.63,1347.18 
		326.63,1116.2 326.63,1062.72 	"></polygon>
	<polygon points="1770.22,1505.09 1770.22,1515.17 1743.34,1517.86 1725.42,1519.65 1725.42,1615.96 1784.11,1615.96 
		1784.11,1520.61 1784.11,1510.69 1784.11,1504.1 	"></polygon>
	<polygon style="fill-rule:evenodd;clip-rule:evenodd;" points="1384.96,1660.76 1384.96,1615.96 621.17,1615.96 621.17,1660.76 
		786.56,1660.76 1384.96,1660.76 	"></polygon>
	<polygon points="1725.42,1615.96 1384.96,1615.96 1384.96,1660.76 1725.42,1660.76 1725.42,1638.36 	"></polygon>
	<polygon points="1725.42,1638.36 1725.42,1660.76 1784.11,1660.76 1784.11,1655.41 1784.11,1638.36 1784.11,1615.96 
		1725.42,1615.96 	"></polygon>
	<polygon style="fill-rule:evenodd;clip-rule:evenodd;" points="621.17,1615.96 281.83,1615.96 281.83,1660.76 621.17,1660.76 
		621.17,1615.96 	"></polygon>
	<polygon style="fill-rule:evenodd;clip-rule:evenodd;" points="326.63,1347.18 281.83,1347.18 281.83,1615.96 326.63,1615.96 
		326.63,1475.68 326.63,1347.18 	"></polygon>
	
		<rect x="424.48" y="697.47" transform="matrix(6.123234e-17 -1 1 6.123234e-17 -373.489 1237.8959)" style="fill-rule:evenodd;clip-rule:evenodd;" width="15.46" height="216.44"></rect>
	
		<rect x="806.02" y="711.56" transform="matrix(6.123234e-17 -1 1 6.123234e-17 8.0504 1619.4352)" style="fill-rule:evenodd;clip-rule:evenodd;" width="15.46" height="188.26"></rect>
	
		<rect x="683.95" y="589.72" transform="matrix(6.123234e-17 -1 1 6.123234e-17 299.9084 1497.3674)" style="fill-rule:evenodd;clip-rule:evenodd;" width="429.38" height="18.02"></rect>
	<path d="M1315.53,1032.81v17.92h-10.75c-0.44,0-0.8-0.39-0.8-0.86v-16.22c0-0.47,0.36-0.84,0.8-0.84H1315.53z M1313.92,1049.03
		v-14.53h-8.34v14.53H1313.92z"></path>
	<g id="LWPOLYLINE_27_">
		<path d="M1127.33,1033.66v16.2c0,0.47-0.36,0.87-0.8,0.87h-12.58v-17.92h12.58C1126.97,1032.81,1127.33,1033.19,1127.33,1033.66z
			 M1125.72,1049.01l0-14.52l-8.56,0v14.52H1125.72z"></path>
	</g>
	
		<line style="fill:none;stroke:#000000;stroke-miterlimit:10;stroke-dasharray:10,0;" x1="1304.78" y1="1046.31" x2="1304.78" y2="1223.51"></line>
	<path style="fill:none;stroke:#000000;stroke-miterlimit:10;stroke-dasharray:10,0;" d="M1126.52,1047.49
		c0.05,101.11,67.88,176.02,178.26,176.02"></path>
	
		<line style="fill:none;stroke:#000000;stroke-miterlimit:10;stroke-dasharray:10,0;" x1="407.18" y1="384.04" x2="407.17" y2="797.74"></line>
	<g id="LWPOLYLINE_26_">
		
			<line style="fill:none;stroke:#000000;stroke-miterlimit:10;stroke-dasharray:10,0;" x1="396.79" y1="797.74" x2="396.79" y2="643.66"></line>
	</g>
	<g id="LWPOLYLINE_25_">
		
			<line style="fill:none;stroke:#000000;stroke-miterlimit:10;stroke-dasharray:10,0;" x1="396.79" y1="643.66" x2="326.63" y2="643.66"></line>
	</g>
	<g id="LWPOLYLINE_24_">
		
			<rect x="356.11" y="675.25" style="fill:none;stroke:#000000;stroke-miterlimit:10;stroke-dasharray:10,0;" width="28.64" height="86.87"></rect>
	</g>
	<g id="LWPOLYLINE_23_">
		<polyline style="fill:none;stroke:#000000;stroke-miterlimit:10;stroke-dasharray:10,0;" points="356.11,675.25 377.55,681.89 
			384.75,762.12 		"></polyline>
	</g>
	<g id="LWPOLYLINE_22_">
		
			<line style="fill:none;stroke:#000000;stroke-miterlimit:10;stroke-dasharray:10,0;" x1="435.89" y1="693.87" x2="435.89" y2="749.94"></line>
	</g>
	<g id="LWPOLYLINE_21_">
		<path style="fill:none;stroke:#000000;stroke-miterlimit:10;stroke-dasharray:10,0;" d="M445.24,754.36h39.26
			c20.65,0,37.39-16.74,37.39-37.39c0-20.65-16.74-37.39-37.39-37.39h-39.26c-5.16,0-9.34,4.18-9.34,9.35l0,56.08
			C435.89,750.18,440.08,754.36,445.24,754.36z"></path>
	</g>
	<g id="LWPOLYLINE_20_">
		<path style="fill:none;stroke:#000000;stroke-miterlimit:10;stroke-dasharray:10,0;" d="M484.5,687.06h-13.11
			c-16.52,0-29.9,13.39-29.91,29.91c0,16.52,13.39,29.91,29.91,29.91h13.11c16.52,0,29.9-13.39,29.91-29.91
			C514.4,700.46,501.01,687.07,484.5,687.06z"></path>
	</g>
	<g id="LWPOLYLINE_19_">
		<path style="fill:none;stroke:#000000;stroke-miterlimit:10;stroke-dasharray:10,0;" d="M472.46,705.76h-13.11
			c-6.19,0-11.22,5.02-11.22,11.22c0,6.19,5.02,11.21,11.22,11.21h13.11c6.19,0,11.21-5.02,11.21-11.21
			C483.68,710.78,478.66,705.76,472.46,705.76z"></path>
	</g>
	<g id="LWPOLYLINE_18_">
		
			<rect x="407.17" y="657.37" style="fill:none;stroke:#000000;stroke-miterlimit:10;stroke-dasharray:10,0;" width="28.72" height="119.2"></rect>
	</g>
	<g id="LWPOLYLINE_17_">
		<path style="fill:none;stroke:#000000;stroke-miterlimit:10;stroke-dasharray:10,0;" d="M584.84,416.45l0,64.86
			c0,9.14,5.9,17.23,14.59,20.03c31.56,10.16,65.52,10.16,97.08,0c8.7-2.8,14.59-10.89,14.59-20.03l0-64.86"></path>
	</g>
	<g id="LWPOLYLINE_16_">
		<path style="fill:none;stroke:#000000;stroke-miterlimit:10;stroke-dasharray:10,0;" d="M681.64,434.6
			c6.97,0,12.63,5.65,12.63,12.63v20.21c0,4.62-3.02,8.71-7.44,10.06c-25.32,7.75-52.39,7.75-77.71,0
			c-4.42-1.36-7.44-5.44-7.44-10.06v-20.21c0-6.97,5.65-12.63,12.63-12.63"></path>
	</g>
	<g id="LWPOLYLINE_15_">
		<path style="fill:none;stroke:#000000;stroke-miterlimit:10;stroke-dasharray:10,0;" d="M593.26,447.22l0,34.08
			c0,5.48,3.53,10.34,8.75,12.02c29.88,9.63,62.04,9.63,91.92,0c5.21-1.68,8.75-6.54,8.75-12.02v-34.08
			c0-6.97-5.65-12.63-12.63-12.63l-84.18,0C598.91,434.6,593.26,440.25,593.26,447.22z"></path>
	</g>
	<g id="LWPOLYLINE_14_">
		<path style="fill:none;stroke:#000000;stroke-miterlimit:10;stroke-dasharray:10,0;" d="M647.98,438.36
			c-3.13,0-5.67,2.53-5.67,5.66c0,3.13,2.54,5.66,5.67,5.66c3.13,0,5.66-2.53,5.66-5.66C653.64,440.89,651.1,438.36,647.98,438.36z"></path>
	</g>
	<g id="LWPOLYLINE_13_">
		
			<rect x="407.17" y="416.45" style="fill:none;stroke:#000000;stroke-miterlimit:10;stroke-dasharray:10,0;" width="127.28" height="101.77"></rect>
	</g>
	<g id="LWPOLYLINE_12_">
		<polyline style="fill:none;stroke:#000000;stroke-miterlimit:10;stroke-dasharray:10,0;" points="427.19,500.26 470.82,449.64 
			470.82,484 514.44,433.39 		"></polyline>
	</g>
	<g id="LWPOLYLINE_11_">
		<path style="fill:none;stroke:#000000;stroke-miterlimit:10;stroke-dasharray:10,0;" d="M470.82,505.01
			c21.09,0,38.18-17.1,38.18-38.18c0-21.09-17.09-38.18-38.18-38.19c-21.09,0-38.19,17.1-38.19,38.19
			C432.63,487.91,449.73,505.01,470.82,505.01z"></path>
	</g>
	<g id="LWPOLYLINE_10_">
		
			<rect x="730.52" y="416.45" style="fill:none;stroke:#000000;stroke-miterlimit:10;stroke-dasharray:10,0;" width="159.11" height="381.29"></rect>
	</g>
	<g id="LWPOLYLINE_9_">
		<path style="fill:none;stroke:#000000;stroke-miterlimit:10;stroke-dasharray:10,0;" d="M876.9,744.11l0-247.17
			c0-36.9-29.92-66.82-66.82-66.82c-36.91,0-66.82,29.91-66.83,66.82l0,247.17c-0.01,17.64,14.18,31.99,31.82,32.2h70.01
			c17.58,0,31.82-14.25,31.82-31.82"></path>
	</g>
	<g id="LWPOLYLINE_8_">
		<path style="fill:none;stroke:#000000;stroke-miterlimit:10;stroke-dasharray:10,0;" d="M858.71,664.67l0-167.72
			c0-26.87-21.78-48.65-48.64-48.64c-26.86,0-48.64,21.78-48.64,48.64l0,165.21c0.02,25.88,20.29,47.22,46.13,48.57
			C834.41,712.13,857.31,691.51,858.71,664.67z"></path>
	</g>
	<g id="LWPOLYLINE_7_">
		<path style="fill:none;stroke:#000000;stroke-miterlimit:10;stroke-dasharray:10,0;" d="M810.07,488.04
			c-4.92,0-8.91,3.99-8.91,8.91c0,4.92,3.99,8.91,8.91,8.91c4.92,0,8.91-3.99,8.91-8.91C818.98,492.03,814.99,488.04,810.07,488.04z
			"></path>
	</g>
	<g id="LWPOLYLINE_6_">
		<path style="fill:none;stroke:#000000;stroke-miterlimit:10;stroke-dasharray:10,0;" d="M858.71,496.95
			c0-26.87-21.78-48.64-48.64-48.64c-26.87,0-48.64,21.78-48.64,48.64"></path>
	</g>
	
		<line style="fill:none;stroke:#000000;stroke-miterlimit:10;stroke-dasharray:10,0;" x1="407.18" y1="620.48" x2="326.63" y2="620.48"></line>
	
		<line style="fill:none;stroke:#000000;stroke-miterlimit:10;stroke-dasharray:10,0;" x1="326.63" y1="416.45" x2="889.28" y2="416.45"></line>
	
		<rect x="1725.45" y="1042.36" transform="matrix(-1 -1.224647e-16 1.224647e-16 -1 3509.2039 2143.0151)" width="58.3" height="58.3"></rect>
	
		<rect x="1725.45" y="1504.11" transform="matrix(-1 -1.224647e-16 1.224647e-16 -1 3509.2039 3066.5083)" width="58.3" height="58.3"></rect>
	<g id="LINE_24_">
		
			<line style="fill:none;stroke:#000000;stroke-miterlimit:10;stroke-dasharray:10,0;" x1="1749.97" y1="1296.18" x2="1749.97" y2="1100.66"></line>
	</g>
	<g id="LINE_23_">
		
			<line style="fill:none;stroke:#000000;stroke-miterlimit:10;stroke-dasharray:10,0;" x1="1765.97" y1="1296.18" x2="1765.97" y2="1100.66"></line>
	</g>
	<g id="LINE_22_">
		
			<line style="fill:none;stroke:#000000;stroke-miterlimit:10;stroke-dasharray:10,0;" x1="1757.97" y1="1296.18" x2="1757.97" y2="1118.36"></line>
	</g>
	<g id="LINE_21_">
		
			<line style="fill:none;stroke:#000000;stroke-miterlimit:10;stroke-dasharray:10,0;" x1="1725.49" y1="1296.18" x2="1725.49" y2="1100.66"></line>
	</g>
	<g id="LINE_20_">
		
			<line style="fill:none;stroke:#000000;stroke-miterlimit:10;stroke-dasharray:10,0;" x1="1783.75" y1="1100.67" x2="1783.75" y2="1296.18"></line>
	</g>
	<g id="LINE_19_">
		
			<line style="fill:none;stroke:#000000;stroke-miterlimit:10;stroke-dasharray:10,0;" x1="1749.97" y1="1107.59" x2="1765.97" y2="1107.59"></line>
	</g>
	<g id="LINE_18_">
		
			<line style="fill:none;stroke:#000000;stroke-miterlimit:10;stroke-dasharray:10,0;" x1="1765.97" y1="1117.55" x2="1749.97" y2="1117.55"></line>
	</g>
	<g id="LINE_17_">
		
			<line style="fill:none;stroke:#000000;stroke-miterlimit:10;stroke-dasharray:10,0;" x1="1749.97" y1="1291.7" x2="1749.97" y2="1504.11"></line>
	</g>
	<g id="LINE_16_">
		
			<line style="fill:none;stroke:#000000;stroke-miterlimit:10;stroke-dasharray:10,0;" x1="1765.97" y1="1291.7" x2="1765.97" y2="1504.11"></line>
	</g>
	<g id="LINE_15_">
		
			<line style="fill:none;stroke:#000000;stroke-miterlimit:10;stroke-dasharray:10,0;" x1="1757.97" y1="1291.7" x2="1757.97" y2="1486.4"></line>
	</g>
	<g id="LINE_14_">
		
			<line style="fill:none;stroke:#000000;stroke-miterlimit:10;stroke-dasharray:10,0;" x1="1725.49" y1="1291.7" x2="1725.49" y2="1504.11"></line>
	</g>
	<g id="LINE_13_">
		
			<line style="fill:none;stroke:#000000;stroke-miterlimit:10;stroke-dasharray:10,0;" x1="1783.75" y1="1504.1" x2="1783.75" y2="1291.7"></line>
	</g>
	<g id="LINE_12_">
		
			<line style="fill:none;stroke:#000000;stroke-miterlimit:10;stroke-dasharray:10,0;" x1="1749.97" y1="1497.17" x2="1765.97" y2="1497.17"></line>
	</g>
	<g id="LINE_11_">
		
			<line style="fill:none;stroke:#000000;stroke-miterlimit:10;stroke-dasharray:10,0;" x1="1765.97" y1="1487.21" x2="1749.97" y2="1487.21"></line>
	</g>
	<g id="LINE_10_">
		
			<line style="fill:none;stroke:#000000;stroke-miterlimit:10;stroke-dasharray:10,0;" x1="1783.75" y1="1336.86" x2="1900" y2="1336.86"></line>
	</g>
	<g id="LINE_9_">
		
			<line style="fill:none;stroke:#000000;stroke-miterlimit:10;stroke-dasharray:10,0;" x1="1900" y1="1337.11" x2="1783.75" y2="1337.11"></line>
	</g>
	<g id="LINE_8_">
		
			<line style="fill:none;stroke:#000000;stroke-miterlimit:10;stroke-dasharray:10,0;" x1="1783.75" y1="1100.66" x2="1900" y2="1100.66"></line>
	</g>
	<g id="LWPOLYLINE_5_">
		
			<line style="fill:none;stroke:#000000;stroke-miterlimit:10;stroke-dasharray:10,0;" x1="1783.75" y1="1336.86" x2="1900" y2="1100.66"></line>
	</g>
	<g id="LWPOLYLINE_4_">
		
			<line style="fill:none;stroke:#000000;stroke-miterlimit:10;stroke-dasharray:10,0;" x1="1783.75" y1="1100.66" x2="1900" y2="1336.86"></line>
	</g>
	
		<line style="fill:none;stroke:#000000;stroke-miterlimit:10;stroke-dasharray:10,0;" x1="1900" y1="1100.66" x2="1900" y2="1336.86"></line>
	
		<rect x="1725.39" y="506.81" transform="matrix(-1 -1.224647e-16 1.224647e-16 -1 3509.0779 1071.9188)" width="58.3" height="58.3"></rect>
	
		<rect x="1725.39" y="832.01" transform="matrix(-1 -1.224647e-16 1.224647e-16 -1 3509.0779 1722.3173)" width="58.3" height="58.3"></rect>
	
		<line style="fill:none;stroke:#000000;stroke-miterlimit:10;stroke-dasharray:10,0;" x1="1749.91" y1="766.82" x2="1749.91" y2="565.11"></line>
	
		<line style="fill:none;stroke:#000000;stroke-miterlimit:10;stroke-dasharray:10,0;" x1="1765.91" y1="766.82" x2="1765.91" y2="565.11"></line>
	
		<line style="fill:none;stroke:#000000;stroke-miterlimit:10;stroke-dasharray:10,0;" x1="1757.91" y1="766.82" x2="1757.91" y2="584.55"></line>
	
		<line style="fill:none;stroke:#000000;stroke-miterlimit:10;stroke-dasharray:10,0;" x1="1725.42" y1="766.82" x2="1725.42" y2="565.11"></line>
	
		<line style="fill:none;stroke:#000000;stroke-miterlimit:10;stroke-dasharray:10,0;" x1="1783.69" y1="565.11" x2="1783.69" y2="766.82"></line>
	
		<line style="fill:none;stroke:#000000;stroke-miterlimit:10;stroke-dasharray:10,0;" x1="1749.91" y1="574.6" x2="1765.91" y2="574.6"></line>
	
		<line style="fill:none;stroke:#000000;stroke-miterlimit:10;stroke-dasharray:10,0;" x1="1765.91" y1="584.55" x2="1749.91" y2="584.55"></line>
	<g id="LINE_7_">
		
			<line style="fill:none;stroke:#000000;stroke-miterlimit:10;stroke-dasharray:10,0;" x1="1749.91" y1="630.42" x2="1749.91" y2="832.14"></line>
	</g>
	<g id="LINE_6_">
		
			<line style="fill:none;stroke:#000000;stroke-miterlimit:10;stroke-dasharray:10,0;" x1="1765.91" y1="630.42" x2="1765.91" y2="832.14"></line>
	</g>
	<g id="LINE_5_">
		
			<line style="fill:none;stroke:#000000;stroke-miterlimit:10;stroke-dasharray:10,0;" x1="1757.91" y1="630.42" x2="1757.91" y2="812.69"></line>
	</g>
	<g id="LINE_4_">
		
			<line style="fill:none;stroke:#000000;stroke-miterlimit:10;stroke-dasharray:10,0;" x1="1725.42" y1="630.42" x2="1725.42" y2="832.14"></line>
	</g>
	<g id="LINE_3_">
		
			<line style="fill:none;stroke:#000000;stroke-miterlimit:10;stroke-dasharray:10,0;" x1="1783.69" y1="832.14" x2="1783.69" y2="630.42"></line>
	</g>
	<g id="LINE_2_">
		
			<line style="fill:none;stroke:#000000;stroke-miterlimit:10;stroke-dasharray:10,0;" x1="1749.91" y1="822.65" x2="1765.91" y2="822.65"></line>
	</g>
	<g id="LINE_1_">
		
			<line style="fill:none;stroke:#000000;stroke-miterlimit:10;stroke-dasharray:10,0;" x1="1765.91" y1="812.69" x2="1749.91" y2="812.69"></line>
	</g>
	<path d="M326.63,847.8c0,0.5-0.41,0.91-0.91,0.91h-17.56c-0.5,0-0.93-0.41-0.93-0.91v-15.57h19.4V847.8z M309.07,846.89l15.73,0
		v-9.48h-15.73V846.89z"></path>
	<g id="LWPOLYLINE_3_">
		<path d="M326.63,1050.46v12.47h-19.41v-12.47c0-0.5,0.44-0.91,0.95-0.91l17.55,0C326.22,1049.55,326.63,1049.96,326.63,1050.46z
			 M309.08,1061.11h15.73v-9.74h-15.73V1061.11z"></path>
	</g>
	<path style="fill:none;stroke:#000000;stroke-miterlimit:10;stroke-dasharray:10,0;" d="M100,847.89
		c2.51,113.14,95.13,202.47,208.3,202.47"></path>
	
		<line style="fill:none;stroke:#000000;stroke-miterlimit:10;stroke-dasharray:10,0;" x1="308.12" y1="847.89" x2="100" y2="847.89"></line>
	<path d="M551.11,797.96c0.44,0,0.8,0.33,0.8,0.73v13.99c0,0.4-0.36,0.74-0.8,0.74l-10.68,0v-15.45L551.11,797.96z M550.31,811.95
		l0-12.53h-8.29v12.53H550.31z"></path>
	<g id="LWPOLYLINE_2_">
		<path d="M706.36,797.96h13.25v15.45l-13.25,0c-0.44,0-0.8-0.35-0.8-0.75v-13.97C705.56,798.29,705.92,797.96,706.36,797.96z
			 M715.67,811.94v-12.52h-8.51v12.52H715.67z"></path>
	</g>
	
		<line style="fill:none;stroke:#000000;stroke-miterlimit:10;stroke-dasharray:10,0;" x1="551.11" y1="813.68" x2="551.11" y2="978.67"></line>
	<path style="fill:none;stroke:#000000;stroke-miterlimit:10;stroke-dasharray:10,0;" d="M706.36,811.94
		c-0.05,95.39-45.52,166.73-155.25,166.73"></path>
	<path d="M607.73,1594.08c0-0.44,0.33-0.8,0.73-0.8h13.99c0.4,0,0.74,0.36,0.74,0.8v10.68h-15.45V1594.08z M621.72,1594.88h-12.53
		v8.29h12.53V1594.88z"></path>
	<g id="LWPOLYLINE_1_">
		<path d="M607.73,1438.83v-13.25h15.45v13.25c0,0.44-0.35,0.8-0.75,0.8h-13.97C608.06,1439.63,607.73,1439.27,607.73,1438.83z
			 M621.7,1429.52l-12.52,0v8.51h12.52V1429.52z"></path>
	</g>
	
		<line style="fill:none;stroke:#000000;stroke-miterlimit:10;stroke-dasharray:10,0;" x1="623.44" y1="1594.08" x2="788.44" y2="1594.08"></line>
	<path style="fill:none;stroke:#000000;stroke-miterlimit:10;stroke-dasharray:10,0;" d="M621.7,1438.83
		c95.39,0.05,166.73,45.52,166.73,155.25"></path>
	
		<rect x="1046.74" y="384" style="fill:none;stroke:#000000;stroke-miterlimit:10;stroke-dasharray:10,0;" width="134.39" height="134.39"></rect>
	<path style="fill:none;stroke:#000000;stroke-miterlimit:10;stroke-dasharray:10,0;" d="M1169.94,499.35l0-85.06
		c0-4.33-3.51-7.84-7.84-7.84c0,0-96.32,0-96.32,0c-4.33,0-7.84,3.51-7.84,7.84c0,0,0,85.06,0,85.06c0,4.33,3.51,7.84,7.84,7.84
		c0,0,96.32,0,96.32,0C1166.43,507.19,1169.94,503.68,1169.94,499.35z"></path>
	<path style="fill:none;stroke:#000000;stroke-miterlimit:10;stroke-dasharray:10,0;" d="M1136.34,436.09
		c4.34,0,7.86-3.52,7.86-7.86c0-4.34-3.52-7.86-7.86-7.86c-4.34,0-7.86,3.52-7.86,7.86C1128.48,432.58,1132,436.09,1136.34,436.09z"></path>
	
		<rect x="1315.3" y="384" style="fill:none;stroke:#000000;stroke-miterlimit:10;stroke-dasharray:10,0;" width="134.39" height="134.39"></rect>
	
		<line style="fill:none;stroke:#000000;stroke-miterlimit:10;stroke-dasharray:10,0;" x1="1371.3" y1="484.79" x2="1326.5" y2="484.79"></line>
	
		<line style="fill:none;stroke:#000000;stroke-miterlimit:10;stroke-dasharray:10,0;" x1="1348.9" y1="462.39" x2="1348.9" y2="507.19"></line>
	<path style="fill:none;stroke:#000000;stroke-miterlimit:10;stroke-dasharray:10,0;" d="M1348.9,502.71
		c-9.9,0-17.92-8.02-17.92-17.92c0-9.9,8.02-17.92,17.92-17.92s17.92,8.02,17.92,17.92C1366.83,494.68,1358.8,502.71,1348.9,502.71
		L1348.9,502.71z"></path>
	
		<line style="fill:none;stroke:#000000;stroke-miterlimit:10;stroke-dasharray:10,0;" x1="1438.5" y1="484.79" x2="1393.7" y2="484.79"></line>
	
		<line style="fill:none;stroke:#000000;stroke-miterlimit:10;stroke-dasharray:10,0;" x1="1416.1" y1="462.39" x2="1416.1" y2="507.19"></line>
	<path style="fill:none;stroke:#000000;stroke-miterlimit:10;stroke-dasharray:10,0;" d="M1416.11,502.71
		c-9.9,0-17.93-8.03-17.93-17.93s8.03-17.93,17.93-17.93s17.93,8.03,17.93,17.93S1426.01,502.71,1416.11,502.71L1416.11,502.71z"></path>
	
		<line style="fill:none;stroke:#000000;stroke-miterlimit:10;stroke-dasharray:10,0;" x1="1438.5" y1="417.59" x2="1393.7" y2="417.59"></line>
	
		<line style="fill:none;stroke:#000000;stroke-miterlimit:10;stroke-dasharray:10,0;" x1="1416.1" y1="395.19" x2="1416.1" y2="439.99"></line>
	<path style="fill:none;stroke:#000000;stroke-miterlimit:10;stroke-dasharray:10,0;" d="M1416.11,435.51
		c-9.9,0-17.93-8.03-17.93-17.93c0-9.9,8.03-17.93,17.93-17.93s17.93,8.03,17.93,17.93
		C1434.03,427.48,1426.01,435.51,1416.11,435.51L1416.11,435.51z"></path>
	
		<line style="fill:none;stroke:#000000;stroke-miterlimit:10;stroke-dasharray:10,0;" x1="1371.3" y1="417.59" x2="1326.5" y2="417.59"></line>
	
		<line style="fill:none;stroke:#000000;stroke-miterlimit:10;stroke-dasharray:10,0;" x1="1348.9" y1="395.19" x2="1348.9" y2="439.99"></line>
	<path style="fill:none;stroke:#000000;stroke-miterlimit:10;stroke-dasharray:10,0;" d="M1348.9,435.51
		c-9.9,0-17.92-8.02-17.92-17.92c0-9.9,8.02-17.92,17.92-17.92s17.92,8.02,17.92,17.92C1366.83,427.49,1358.8,435.51,1348.9,435.51
		L1348.9,435.51z"></path>
	
		<line style="fill:none;stroke:#000000;stroke-miterlimit:10;stroke-dasharray:10,10;" x1="907.87" y1="813.42" x2="907.87" y2="1034.5"></line>
</g>
</svg>
