<?xml version="1.0" encoding="utf-8"?>

<svg version="1.0" id="Layer_1" xmlns="http://www.w3.org/2000/svg" xmlns:xlink="http://www.w3.org/1999/xlink" x="0px" y="0px"
	 width="2000px" height="2001px" viewBox="0 0 2000 2001" style="enable-background:new 0 0 2000 2001;" xml:space="preserve">
<path id="backgraund" style="fill:#FFFFFF;" d="M1425.57,282.68v-0.35h-44.8v0.35h0v-0.35h-156.79l0,0H932.8l-0.2,25.35h-12
	c-2-63-27.07-112.08-59-145c-38.09-39.28-89.04-61.47-143.82-62.68c0,0,0,0-0.01,0c0,0,0,0-0.01,0c-0.04,0-0.08,0.01-0.12,0.02
	c-0.23,0.05-0.37,0.23-0.38,0.46c0,0,0,0,0,0.01c0,0,0,0,0,0.01v207.23h-15.16v12.95h-0.01v-38.35h-82.87h-44.8v339.34v165.39v598.4
	h0v340.46v58.68h0.17v0.08h223.45c0.07,0.04,0.15,0.07,0.23,0.07h166.49v115.75c0,0.28,0.22,0.5,0.5,0.5c0.04,0,0.08-0.01,0.12-0.02
	c0.04,0.01,0.08,0.02,0.12,0.02h236.21c0.09,0,0.16-0.03,0.23-0.07c0.02-0.01,0.03-0.02,0.05-0.03c0.06-0.04,0.11-0.09,0.14-0.16
	c0.01-0.01,0.02-0.01,0.02-0.02c0,0,0-0.01,0-0.01c0.01-0.03,0.02-0.06,0.03-0.09c0.01-0.03,0.02-0.07,0.02-0.1c0,0,0-0.01,0-0.01
	v-115.82h34.37h189v-1502H1425.57z"/>
<g id="s1">
	<path id="s1_path" style="fill:none;" d="M1406.6,727.68h-444v-422h444V727.68z"/>
	<text id="s1_text" transform="matrix(1 0 0 1 1049.0404 503.9346)" style="font-family:'GraphikLCG-Regular'; font-size:40px;text-anchor:middle;text-align:center;text-anchor:middle;text-align:center;text-anchor:middle;text-align:center;"></text>
</g>
<g id="h1">
	<path id="h1_path" style="fill:none;" d="M961.6,721.68h-365v-416h365V721.68z"/>
	<text id="h1_text" transform="matrix(1 0 0 1 683.0404 503.9346)" style="font-family:'GraphikLCG-Regular'; font-size:40px;text-anchor:middle;text-align:center;text-anchor:middle;text-align:center;text-anchor:middle;text-align:center;"></text>
</g>
<g id="r1">
	<path id="r1_path" style="fill:none;" d="M1406.6,1758.68l-807-0.42v-683.58h807V1758.68z"/>
	<text id="r1_text" transform="matrix(1 0 0 1 987.1206 1429.4344)" style="font-family:'GraphikLCG-Regular'; font-size:40px;text-anchor:middle;text-align:center;text-anchor:middle;text-align:center;text-anchor:middle;text-align:center;"></text>
</g>
<g id="c1">
	<path id="c1_path" style="fill:none;" d="M1406.6,1074.68h-807l-3.5-356h367.02l0.48,10h444L1406.6,1074.68z"/>
	<text id="c1_text" transform="matrix(1 0 0 1 983.2405 959.9346)" style="font-family:'GraphikLCG-Regular'; font-size:40px;text-anchor:middle;text-align:center;text-anchor:middle;text-align:center;text-anchor:middle;text-align:center;"></text>
</g>
<g id="floor">
	<polygon style="fill-rule:evenodd;clip-rule:evenodd;" points="756.53,740.16 756.53,738.03 619.22,738.03 619.22,740.16 
		722.81,740.16 756.53,740.16 	"/>
	<polygon style="fill-rule:evenodd;clip-rule:evenodd;" points="756.53,724.37 756.53,722.24 619.22,722.24 619.22,724.37 
		722.81,724.37 756.53,724.37 	"/>
	<polygon style="fill-rule:evenodd;clip-rule:evenodd;" points="756.53,726.5 756.53,724.37 619.22,724.37 619.22,726.5 
		722.81,726.5 756.53,726.5 	"/>
	<polygon style="fill-rule:evenodd;clip-rule:evenodd;" points="756.53,737.7 756.53,726.5 619.22,726.5 619.22,737.7 722.81,737.7 
		756.53,737.7 	"/>
	<polygon style="fill-rule:evenodd;clip-rule:evenodd;" points="702.1,327.13 702.1,282.33 619.22,282.33 619.22,327.13 
		702.1,327.13 	"/>
	<polygon points="797.29,1770.72 787.21,1770.72 784.53,1743.84 782.73,1725.92 619.22,1725.92 619.22,1784.61 767.75,1784.61 
		790.21,1784.61 798.28,1784.61 	"/>
	<polygon style="fill-rule:evenodd;clip-rule:evenodd;" points="574.43,1385.46 619.22,1385.46 619.22,621.67 574.43,621.67 
		574.43,787.06 574.43,1385.46 	"/>
	<polygon points="619.22,1725.92 619.22,1385.46 574.43,1385.46 574.43,1725.92 596.83,1725.92 	"/>
	<polygon points="596.83,1725.92 574.43,1725.92 574.43,1784.61 596.83,1784.61 619.22,1784.61 619.22,1725.92 	"/>
	<polygon style="fill-rule:evenodd;clip-rule:evenodd;" points="619.22,621.67 619.22,282.33 574.43,282.33 574.43,621.67 
		619.22,621.67 	"/>
	<polygon style="fill-rule:evenodd;clip-rule:evenodd;" points="1223.99,327.13 1223.99,282.33 932.8,282.33 932.8,327.13 
		1082.29,327.13 1223.99,327.13 	"/>
	<polygon points="1380.78,1725.92 1217.27,1725.92 1215.47,1743.84 1212.79,1770.72 1202.71,1770.72 1201.72,1784.61 
		1262.03,1784.61 1380.78,1784.61 1380.78,1746.98 	"/>
	<polygon points="1425.57,1725.92 1425.57,282.33 1380.78,282.33 1380.78,1725.92 1403.17,1725.92 	"/>
	<polygon points="1403.17,1725.92 1380.78,1725.92 1380.78,1746.98 1380.78,1784.61 1403.17,1784.61 1425.57,1784.61 
		1425.57,1725.92 	"/>
	<polygon style="fill-rule:evenodd;clip-rule:evenodd;" points="1380.78,327.13 1380.78,282.33 1223.99,282.33 1223.99,327.13 
		1351.02,327.13 1380.78,327.13 	"/>
	<rect x="953.63" y="327.13" style="fill-rule:evenodd;clip-rule:evenodd;" width="15.46" height="103.03"/>
	<rect x="953.63" y="609.35" style="fill-rule:evenodd;clip-rule:evenodd;" width="15.46" height="135.29"/>
	<rect x="969.09" y="720.12" style="fill-rule:evenodd;clip-rule:evenodd;" width="411.69" height="24.51"/>
	
		<rect x="1201.73" y="1725.95" transform="matrix(6.123234e-17 -1 1 6.123234e-17 -524.2288 2985.9753)" width="58.3" height="58.3"/>
	
		<rect x="739.98" y="1725.95" transform="matrix(6.123234e-17 -1 1 6.123234e-17 -985.9753 2524.2288)" width="58.3" height="58.3"/>
	<g id="LINE">
		
			<line style="fill:none;stroke:#000000;stroke-linecap:round;stroke-linejoin:round;stroke-miterlimit:10;" x1="1006.2" y1="1750.47" x2="1201.73" y2="1750.47"/>
	</g>
	<g id="LINE">
		
			<line style="fill:none;stroke:#000000;stroke-linecap:round;stroke-linejoin:round;stroke-miterlimit:10;" x1="1006.2" y1="1766.47" x2="1201.73" y2="1766.47"/>
	</g>
	<g id="LINE">
		
			<line style="fill:none;stroke:#000000;stroke-linecap:round;stroke-linejoin:round;stroke-miterlimit:10;" x1="1006.2" y1="1758.47" x2="1184.02" y2="1758.47"/>
	</g>
	<g id="LINE">
		
			<line style="fill:none;stroke:#000000;stroke-linecap:round;stroke-linejoin:round;stroke-miterlimit:10;" x1="1006.2" y1="1725.99" x2="1201.73" y2="1725.99"/>
	</g>
	<g id="LINE">
		
			<line style="fill:none;stroke:#000000;stroke-linecap:round;stroke-linejoin:round;stroke-miterlimit:10;" x1="1201.72" y1="1784.25" x2="1006.2" y2="1784.25"/>
	</g>
	<g id="LINE">
		
			<line style="fill:none;stroke:#000000;stroke-linecap:round;stroke-linejoin:round;stroke-miterlimit:10;" x1="1194.79" y1="1750.47" x2="1194.79" y2="1766.47"/>
	</g>
	<g id="LINE">
		
			<line style="fill:none;stroke:#000000;stroke-linecap:round;stroke-linejoin:round;stroke-miterlimit:10;" x1="1184.83" y1="1766.47" x2="1184.83" y2="1750.47"/>
	</g>
	<g id="LINE">
		
			<line style="fill:none;stroke:#000000;stroke-linecap:round;stroke-linejoin:round;stroke-miterlimit:10;" x1="1010.68" y1="1750.47" x2="798.27" y2="1750.47"/>
	</g>
	<g id="LINE">
		
			<line style="fill:none;stroke:#000000;stroke-linecap:round;stroke-linejoin:round;stroke-miterlimit:10;" x1="1010.68" y1="1766.47" x2="798.27" y2="1766.47"/>
	</g>
	<g id="LINE">
		
			<line style="fill:none;stroke:#000000;stroke-linecap:round;stroke-linejoin:round;stroke-miterlimit:10;" x1="1010.68" y1="1758.47" x2="815.98" y2="1758.47"/>
	</g>
	<g id="LINE">
		
			<line style="fill:none;stroke:#000000;stroke-linecap:round;stroke-linejoin:round;stroke-miterlimit:10;" x1="1010.68" y1="1725.99" x2="798.27" y2="1725.99"/>
	</g>
	<g id="LINE">
		
			<line style="fill:none;stroke:#000000;stroke-linecap:round;stroke-linejoin:round;stroke-miterlimit:10;" x1="798.28" y1="1784.25" x2="1010.68" y2="1784.25"/>
	</g>
	<g id="LINE">
		
			<line style="fill:none;stroke:#000000;stroke-linecap:round;stroke-linejoin:round;stroke-miterlimit:10;" x1="805.21" y1="1750.47" x2="805.21" y2="1766.47"/>
	</g>
	<g id="LINE">
		
			<line style="fill:none;stroke:#000000;stroke-linecap:round;stroke-linejoin:round;stroke-miterlimit:10;" x1="815.17" y1="1766.47" x2="815.17" y2="1750.47"/>
	</g>
	<g id="LINE">
		
			<line style="fill:none;stroke:#000000;stroke-linecap:round;stroke-linejoin:round;stroke-miterlimit:10;" x1="965.52" y1="1784.25" x2="965.52" y2="1900.5"/>
	</g>
	<g id="LINE">
		
			<line style="fill:none;stroke:#000000;stroke-linecap:round;stroke-linejoin:round;stroke-miterlimit:10;" x1="965.27" y1="1900.5" x2="965.27" y2="1784.25"/>
	</g>
	<g id="LINE">
		
			<line style="fill:none;stroke:#000000;stroke-linecap:round;stroke-linejoin:round;stroke-miterlimit:10;" x1="1201.73" y1="1784.25" x2="1201.73" y2="1900.5"/>
	</g>
	<g id="LWPOLYLINE">
		
			<line style="fill:none;stroke:#000000;stroke-linecap:round;stroke-linejoin:round;stroke-miterlimit:10;" x1="965.52" y1="1784.25" x2="1201.73" y2="1900.5"/>
	</g>
	<g id="LWPOLYLINE">
		
			<line style="fill:none;stroke:#000000;stroke-linecap:round;stroke-linejoin:round;stroke-miterlimit:10;" x1="1201.73" y1="1784.25" x2="965.52" y2="1900.5"/>
	</g>
	
		<line style="fill:none;stroke:#000000;stroke-linecap:round;stroke-linejoin:round;stroke-miterlimit:10;" x1="1201.73" y1="1900.5" x2="965.52" y2="1900.5"/>
	<path d="M702.11,327.13v-19.4h15.57c0.5,0,0.91,0.42,0.91,0.93v17.56c0,0.5-0.41,0.91-0.91,0.91H702.11z M707.29,309.57v15.73h9.48
		v-15.73H707.29z"/>
	<g id="LWPOLYLINE">
		<path d="M919.43,326.22v-17.55c0-0.5,0.41-0.95,0.91-0.95h12.47v19.41h-12.47C919.84,327.13,919.43,326.72,919.43,326.22z
			 M921.25,309.58l0,15.73h9.74l0-15.73H921.25z"/>
	</g>
	<path style="fill:none;stroke:#000000;stroke-linecap:round;stroke-linejoin:round;stroke-miterlimit:10;" d="M717.77,100.5
		c113.14,2.51,202.47,95.13,202.47,208.3"/>
	
		<line style="fill:none;stroke:#000000;stroke-linecap:round;stroke-linejoin:round;stroke-miterlimit:10;" x1="717.77" y1="308.62" x2="717.77" y2="100.5"/>
	<path d="M969.09,440.85c0,0.44-0.33,0.8-0.73,0.8h-13.99c-0.4,0-0.74-0.36-0.74-0.8v-10.68h15.45V440.85z M955.1,440.05h12.53
		v-8.29H955.1V440.05z"/>
	<g id="LWPOLYLINE">
		<path d="M969.09,596.1v13.25h-15.45V596.1c0-0.44,0.35-0.8,0.75-0.8h13.97C968.76,595.3,969.09,595.66,969.09,596.1z
			 M955.12,605.41h12.52v-8.51l-12.52,0V605.41z"/>
	</g>
	
		<line style="fill:none;stroke:#000000;stroke-linecap:round;stroke-linejoin:round;stroke-miterlimit:10;" x1="953.38" y1="440.85" x2="788.38" y2="440.85"/>
	<path style="fill:none;stroke:#000000;stroke-linecap:round;stroke-linejoin:round;stroke-miterlimit:10;" d="M955.12,596.1
		c-95.39-0.05-166.73-45.52-166.73-155.25"/>
	<g id="CIRCLE">
		<path style="fill:none;stroke:#000000;stroke-linecap:round;stroke-linejoin:round;stroke-miterlimit:10;" d="M1322.75,697.98
			c-4.45,0-8.06-3.61-8.06-8.06c0-4.45,3.61-8.06,8.06-8.06c4.45,0,8.06,3.61,8.06,8.06C1330.8,694.37,1327.2,697.98,1322.75,697.98
			L1322.75,697.98z"/>
	</g>
	<g id="LWPOLYLINE">
		<path style="fill:none;stroke:#000000;stroke-linecap:round;stroke-linejoin:round;stroke-miterlimit:10;" d="M1222.07,548.99
			c-22.24,0-40.27,18.03-40.27,40.26c0,0,0,105.7,0,105.7c0,8.34,6.76,15.1,15.1,15.1h130.87c8.34,0,15.1-6.76,15.1-15.1V564.09
			c0-8.34-6.76-15.1-15.1-15.1H1222.07z"/>
	</g>
	<g id="LWPOLYLINE">
		<path style="fill:none;stroke:#000000;stroke-linecap:round;stroke-linejoin:round;stroke-miterlimit:10;" d="M1352.94,538.92
			l-130.87,0c-27.8,0-50.33,22.53-50.33,50.33c0,0,0,130.87,0,130.87l181.2,0L1352.94,538.92h-130.87
			c-27.8,0-50.33,22.53-50.33,50.33c0,0,0,130.87,0,130.87"/>
	</g>
	<g id="LWPOLYLINE">
		
			<line style="fill:none;stroke:#000000;stroke-linecap:round;stroke-linejoin:round;stroke-miterlimit:10;" x1="1297.67" y1="538.98" x2="1297.67" y2="354.61"/>
	</g>
	<g>
		<g id="LWPOLYLINE">
			
				<line style="fill:none;stroke:#000000;stroke-linecap:round;stroke-linejoin:round;stroke-miterlimit:10;" x1="1308.17" y1="354.61" x2="1308.17" y2="515.56"/>
		</g>
		<g id="LWPOLYLINE">
			
				<line style="fill:none;stroke:#000000;stroke-linecap:round;stroke-linejoin:round;stroke-miterlimit:10;" x1="1308.17" y1="515.56" x2="1382.61" y2="515.56"/>
		</g>
		<g id="LWPOLYLINE">
			
				<rect x="1320.33" y="395.87" style="fill:none;stroke:#000000;stroke-linecap:round;stroke-linejoin:round;stroke-miterlimit:10;" width="28.93" height="87.77"/>
		</g>
		<g id="LWPOLYLINE">
			<polyline style="fill:none;stroke:#000000;stroke-linecap:round;stroke-linejoin:round;stroke-miterlimit:10;" points="
				1349.27,483.65 1327.61,476.94 1320.34,395.87 			"/>
		</g>
		<g id="LWPOLYLINE">
			
				<line style="fill:none;stroke:#000000;stroke-linecap:round;stroke-linejoin:round;stroke-miterlimit:10;" x1="1268.66" y1="464.83" x2="1268.66" y2="408.18"/>
		</g>
		<g id="LWPOLYLINE">
			<path style="fill:none;stroke:#000000;stroke-linecap:round;stroke-linejoin:round;stroke-miterlimit:10;" d="M1259.22,403.71
				h-39.67c-20.86,0-37.77,16.91-37.77,37.77c0,20.86,16.91,37.77,37.77,37.77h39.67c5.21,0,9.44-4.23,9.44-9.44v-56.67
				C1268.66,407.94,1264.43,403.71,1259.22,403.71z"/>
		</g>
		<g id="LWPOLYLINE">
			<path style="fill:none;stroke:#000000;stroke-linecap:round;stroke-linejoin:round;stroke-miterlimit:10;" d="M1219.55,471.71
				h13.24c16.69,0,30.21-13.53,30.22-30.22c0-16.69-13.53-30.22-30.22-30.22h-13.24c-16.69,0-30.21,13.53-30.22,30.22
				C1189.33,458.17,1202.86,471.71,1219.55,471.71z"/>
		</g>
		<g id="LWPOLYLINE">
			<path style="fill:none;stroke:#000000;stroke-linecap:round;stroke-linejoin:round;stroke-miterlimit:10;" d="M1231.71,452.82
				h13.24c6.26,0,11.33-5.07,11.33-11.33c0-6.26-5.07-11.33-11.33-11.33h-13.24c-6.26,0-11.33,5.07-11.33,11.33
				C1220.38,447.75,1225.45,452.82,1231.71,452.82z"/>
		</g>
		<g id="LWPOLYLINE">
			
				<rect x="1268.66" y="381.27" style="fill:none;stroke:#000000;stroke-linecap:round;stroke-linejoin:round;stroke-miterlimit:10;" width="29.01" height="120.44"/>
		</g>
	</g>
	
		<line style="fill:none;stroke:#000000;stroke-linecap:round;stroke-linejoin:round;stroke-miterlimit:10;" x1="1297.67" y1="538.98" x2="1382.61" y2="538.98"/>
	<g>
		<g id="LWPOLYLINE">
			<path style="fill:none;stroke:#000000;stroke-linecap:round;stroke-linejoin:round;stroke-miterlimit:10;" d="M1125.12,721.5
				l0-66.14c0-9.32-6.02-17.57-14.88-20.43c-32.18-10.37-66.81-10.37-99,0c-8.87,2.86-14.88,11.11-14.88,20.43v66.15"/>
		</g>
		<g id="LWPOLYLINE">
			<path style="fill:none;stroke:#000000;stroke-linecap:round;stroke-linejoin:round;stroke-miterlimit:10;" d="M1026.4,703
				c-7.11,0-12.88-5.77-12.87-12.88v-20.61c0-4.71,3.08-8.88,7.58-10.26c25.82-7.91,53.43-7.91,79.25,0
				c4.51,1.38,7.59,5.54,7.59,10.26v20.61c0,7.11-5.77,12.88-12.88,12.88"/>
		</g>
		<g id="LWPOLYLINE">
			<path style="fill:none;stroke:#000000;stroke-linecap:round;stroke-linejoin:round;stroke-miterlimit:10;" d="M1116.54,690.12
				c0,7.11-5.77,12.88-12.88,12.88l-85.84,0c-7.12,0-12.88-5.77-12.88-12.87l0-34.77c0-5.59,3.61-10.54,8.93-12.25
				c30.47-9.82,63.26-9.82,93.73,0c5.32,1.71,8.93,6.66,8.93,12.25V690.12z"/>
		</g>
		<g id="LWPOLYLINE">
			<path style="fill:none;stroke:#000000;stroke-linecap:round;stroke-linejoin:round;stroke-miterlimit:10;" d="M1060.74,699.16
				c-3.19,0-5.78-2.58-5.78-5.77c0-3.19,2.59-5.78,5.78-5.77c3.19,0,5.77,2.59,5.77,5.77
				C1066.51,696.58,1063.93,699.16,1060.74,699.16z"/>
		</g>
	</g>
	
		<line style="fill:none;stroke:#000000;stroke-linecap:round;stroke-linejoin:round;stroke-miterlimit:10;" x1="1382.61" y1="354.61" x2="967.26" y2="354.61"/>
	
		<rect x="1246.38" y="744.64" style="fill:none;stroke:#000000;stroke-linecap:round;stroke-linejoin:round;stroke-miterlimit:10;" width="134.39" height="134.39"/>
	<path style="fill:none;stroke:#000000;stroke-linecap:round;stroke-linejoin:round;stroke-miterlimit:10;" d="M1369.58,860l0-85.06
		c0-4.33-3.51-7.84-7.84-7.84c0,0-96.32,0-96.32,0c-4.33,0-7.84,3.51-7.84,7.84c0,0,0,85.06,0,85.06c0,4.33,3.51,7.84,7.84,7.84
		c0,0,96.32,0,96.32,0C1366.07,867.83,1369.58,864.32,1369.58,860z"/>
	<path style="fill:none;stroke:#000000;stroke-linecap:round;stroke-linejoin:round;stroke-miterlimit:10;" d="M1335.98,796.73
		c4.34,0,7.86-3.52,7.86-7.86c0-4.34-3.52-7.86-7.86-7.86c-4.34,0-7.86,3.52-7.86,7.86
		C1328.12,793.22,1331.64,796.73,1335.98,796.73z"/>
	
		<rect x="1047.04" y="744.64" style="fill:none;stroke:#000000;stroke-linecap:round;stroke-linejoin:round;stroke-miterlimit:10;" width="67.2" height="134.39"/>
	
		<line style="fill:none;stroke:#000000;stroke-linecap:round;stroke-linejoin:round;stroke-miterlimit:10;" x1="1103.04" y1="845.43" x2="1058.24" y2="845.43"/>
	
		<line style="fill:none;stroke:#000000;stroke-linecap:round;stroke-linejoin:round;stroke-miterlimit:10;" x1="1080.64" y1="823.03" x2="1080.64" y2="867.83"/>
	<path style="fill:none;stroke:#000000;stroke-linecap:round;stroke-linejoin:round;stroke-miterlimit:10;" d="M1080.64,863.35
		c-9.9,0-17.92-8.02-17.92-17.92c0-9.9,8.02-17.92,17.92-17.92s17.92,8.02,17.92,17.92
		C1098.56,855.32,1090.54,863.35,1080.64,863.35L1080.64,863.35z"/>
	
		<line style="fill:none;stroke:#000000;stroke-linecap:round;stroke-linejoin:round;stroke-miterlimit:10;" x1="1103.04" y1="778.23" x2="1058.24" y2="778.23"/>
	
		<line style="fill:none;stroke:#000000;stroke-linecap:round;stroke-linejoin:round;stroke-miterlimit:10;" x1="1080.64" y1="755.83" x2="1080.64" y2="800.63"/>
	<path style="fill:none;stroke:#000000;stroke-linecap:round;stroke-linejoin:round;stroke-miterlimit:10;" d="M1080.64,796.15
		c-9.9,0-17.92-8.02-17.92-17.92s8.02-17.92,17.92-17.92s17.92,8.02,17.92,17.92S1090.54,796.15,1080.64,796.15L1080.64,796.15z"/>
	
		<line style="fill:none;stroke:#000000;stroke-linecap:round;stroke-linejoin:round;stroke-miterlimit:10;stroke-dasharray:10,10;" x1="619.22" y1="1075.14" x2="1380.78" y2="1075.14"/>
	
		<line style="fill:none;stroke:#000000;stroke-linecap:round;stroke-linejoin:round;stroke-miterlimit:10;stroke-dasharray:10,10;" x1="953.38" y1="721.5" x2="756.53" y2="721.5"/>
</g>
</svg>
